# Blender 4.3.2
# www.blender.org
mtllib luna.mtl
o moon
v 0.195042 0.980785 -0.004341
v 0.382589 0.923880 -0.008515
v 0.555433 0.831470 -0.012361
v 0.706932 0.707107 -0.015733
v 0.831264 0.555570 -0.018500
v 0.923651 0.382683 -0.020556
v 0.980543 0.195090 -0.021822
v 0.831264 -0.555570 -0.018500
v 0.706932 -0.707107 -0.015733
v 0.555433 -0.831470 -0.012361
v 0.192141 0.980785 0.033793
v 0.376899 0.923880 0.066288
v 0.547172 0.831470 0.096236
v 0.696418 0.707107 0.122485
v 0.818900 0.555570 0.144027
v 0.909913 0.382683 0.160034
v 0.965959 0.195090 0.169892
v 0.984883 -0.000000 0.173220
v 0.965959 -0.195090 0.169892
v 0.909914 -0.382683 0.160034
v 0.818901 -0.555570 0.144027
v 0.696418 -0.707107 0.122485
v 0.547172 -0.831470 0.096236
v 0.376899 -0.923880 0.066288
v 0.192141 -0.980785 0.033794
v 0.181857 0.980785 0.070629
v 0.356724 0.923880 0.138544
v 0.517883 0.831470 0.201135
v 0.659141 0.707107 0.255996
v 0.775067 0.555570 0.301019
v 0.861209 0.382683 0.334475
v 0.914254 0.195090 0.355076
v 0.932166 -0.000000 0.362033
v 0.914254 -0.195090 0.355076
v 0.861209 -0.382683 0.334475
v 0.775067 -0.555570 0.301019
v 0.659141 -0.707107 0.255996
v 0.517883 -0.831470 0.201135
v 0.356724 -0.923880 0.138544
v 0.181857 -0.980785 0.070629
v 0.164583 0.980785 0.104750
v 0.322841 0.923880 0.205475
v 0.468693 0.831470 0.298304
v 0.596533 0.707107 0.379669
v 0.701449 0.555570 0.446443
v 0.779408 0.382683 0.496061
v 0.827415 0.195090 0.526616
v 0.843625 -0.000000 0.536933
v 0.827415 -0.195090 0.526616
v 0.779408 -0.382683 0.496061
v 0.701449 -0.555570 0.446443
v 0.596533 -0.707107 0.379669
v 0.468693 -0.831470 0.298304
v 0.322841 -0.923880 0.205475
v 0.164583 -0.980785 0.104750
v 0.140985 0.980785 0.134846
v 0.276552 0.923880 0.264510
v 0.401491 0.831470 0.384010
v 0.511001 0.707107 0.488751
v 0.600874 0.555570 0.574711
v 0.667655 0.382683 0.638584
v 0.708779 0.195090 0.677918
v 0.722664 -0.000000 0.691199
v 0.708779 -0.195090 0.677918
v 0.667655 -0.382683 0.638585
v 0.600874 -0.555570 0.574711
v 0.511001 -0.707107 0.488751
v 0.401491 -0.831470 0.384010
v 0.276552 -0.923880 0.264510
v 0.140985 -0.980785 0.134846
v 0.111969 0.980785 0.159760
v 0.219635 0.923880 0.313381
v 0.318860 0.831470 0.454958
v 0.405832 0.707107 0.579051
v 0.477207 0.555570 0.680893
v 0.530245 0.382683 0.756567
v 0.562905 0.195090 0.803168
v 0.573932 -0.000000 0.818902
v 0.562905 -0.195090 0.803168
v 0.530245 -0.382683 0.756567
v 0.477207 -0.555570 0.680893
v 0.405832 -0.707107 0.579052
v 0.318860 -0.831470 0.454958
v 0.219635 -0.923880 0.313381
v 0.111969 -0.980785 0.159760
v 0.078650 0.980785 0.178534
v 0.154277 0.923880 0.350208
v 0.223975 0.831470 0.508422
v 0.285066 0.707107 0.647099
v 0.335202 0.555570 0.760908
v 0.372457 0.382683 0.845476
v 0.395398 0.195090 0.897552
v 0.403144 -0.000000 0.915136
v 0.395398 -0.195090 0.897552
v 0.372457 -0.382683 0.845476
v 0.335202 -0.555570 0.760908
v 0.285066 -0.707107 0.647099
v 0.223975 -0.831470 0.508423
v 0.154277 -0.923880 0.350208
v 0.078650 -0.980785 0.178534
v 0.042308 0.980785 0.190448
v 0.082990 0.923880 0.373576
v 0.120483 0.831470 0.542349
v 0.153346 0.707107 0.690279
v 0.180316 0.555570 0.811682
v 0.200356 0.382683 0.901893
v 0.212697 0.195090 0.957444
v 0.216864 -0.000000 0.976202
v 0.212697 -0.195090 0.957444
v 0.200356 -0.382683 0.901893
v 0.180316 -0.555570 0.811682
v 0.153346 -0.707107 0.690279
v 0.120483 -0.831470 0.542349
v 0.082990 -0.923880 0.373576
v 0.042308 -0.980785 0.190448
v 0.004341 0.980785 0.195042
v 0.008515 0.923880 0.382589
v 0.012361 0.831470 0.555433
v 0.015733 0.707107 0.706932
v 0.018500 0.555570 0.831264
v 0.020556 0.382683 0.923651
v 0.021822 0.195090 0.980542
v 0.022250 -0.000000 0.999752
v 0.021822 -0.195090 0.980542
v 0.020556 -0.382683 0.923651
v 0.018500 -0.555570 0.831264
v 0.015733 -0.707107 0.706932
v 0.012361 -0.831470 0.555433
v 0.008515 -0.923880 0.382589
v 0.004341 -0.980785 0.195042
v -0.033794 0.980785 0.192141
v -0.066288 0.923880 0.376899
v -0.096236 0.831470 0.547172
v -0.122485 0.707107 0.696417
v -0.144027 0.555570 0.818900
v -0.160034 0.382683 0.909913
v -0.169891 0.195090 0.965959
v -0.173220 -0.000000 0.984883
v -0.169891 -0.195090 0.965959
v -0.160034 -0.382683 0.909913
v -0.144027 -0.555570 0.818900
v -0.122485 -0.707107 0.696418
v -0.096236 -0.831470 0.547172
v -0.066288 -0.923880 0.376899
v -0.033794 -0.980785 0.192141
v -0.070629 0.980785 0.181856
v -0.138544 0.923880 0.356724
v -0.201135 0.831470 0.517883
v -0.255996 0.707107 0.659140
v -0.301019 0.555570 0.775067
v -0.334475 0.382683 0.861208
v -0.355076 0.195090 0.914254
v -0.362033 -0.000000 0.932165
v -0.355076 -0.195090 0.914254
v -0.334475 -0.382683 0.861208
v -0.301019 -0.555570 0.775067
v -0.255996 -0.707107 0.659140
v -0.201135 -0.831470 0.517883
v -0.138544 -0.923880 0.356724
v -0.070629 -0.980785 0.181856
v -0.104750 0.980785 0.164583
v -0.205475 0.923880 0.322841
v -0.298304 0.831470 0.468693
v -0.379669 0.707107 0.596533
v -0.446443 0.555570 0.701448
v -0.496061 0.382683 0.779408
v -0.526616 0.195090 0.827415
v -0.536933 -0.000000 0.843625
v -0.526616 -0.195090 0.827415
v -0.496061 -0.382683 0.779408
v -0.446443 -0.555570 0.701448
v -0.379669 -0.707107 0.596533
v -0.298304 -0.831470 0.468693
v -0.205475 -0.923880 0.322841
v -0.104750 -0.980785 0.164583
v -0.134846 0.980785 0.140985
v -0.264510 0.923880 0.276552
v -0.384009 0.831470 0.401491
v -0.488751 0.707107 0.511001
v -0.574711 0.555570 0.600873
v -0.638584 0.382683 0.667655
v -0.677918 0.195090 0.708779
v -0.691199 -0.000000 0.722664
v -0.677918 -0.195090 0.708779
v -0.638584 -0.382683 0.667655
v -0.574711 -0.555570 0.600873
v -0.488751 -0.707107 0.511001
v -0.384009 -0.831470 0.401491
v -0.264510 -0.923880 0.276552
v -0.134846 -0.980785 0.140985
v -0.159760 0.980785 0.111969
v -0.313380 0.923880 0.219634
v -0.454958 0.831470 0.318860
v -0.579051 0.707107 0.405832
v -0.680892 0.555570 0.477207
v -0.756567 0.382683 0.530244
v -0.803167 0.195090 0.562904
v -0.818902 -0.000000 0.573932
v -0.803167 -0.195090 0.562904
v -0.756567 -0.382683 0.530244
v -0.680892 -0.555570 0.477207
v -0.579051 -0.707107 0.405832
v -0.454958 -0.831470 0.318860
v -0.313381 -0.923880 0.219635
v -0.159760 -0.980785 0.111969
v -0.178534 0.980785 0.078650
v -0.350208 0.923880 0.154277
v -0.508422 0.831470 0.223975
v -0.647099 0.707107 0.285066
v -0.760908 0.555570 0.335202
v -0.845475 0.382683 0.372457
v -0.897552 0.195090 0.395398
v -0.915136 -0.000000 0.403144
v -0.897552 -0.195090 0.395398
v -0.845476 -0.382683 0.372457
v -0.760908 -0.555570 0.335202
v -0.647099 -0.707107 0.285066
v -0.508422 -0.831470 0.223975
v -0.350208 -0.923880 0.154277
v -0.178534 -0.980785 0.078650
v -0.190448 0.980785 0.042308
v -0.373576 0.923880 0.082990
v -0.542349 0.831470 0.120483
v -0.690279 0.707107 0.153346
v -0.811682 0.555570 0.180316
v -0.901893 0.382683 0.200356
v -0.957444 0.195090 0.212697
v -0.976201 -0.000000 0.216864
v -0.957444 -0.195090 0.212697
v -0.901893 -0.382683 0.200356
v -0.811682 -0.555570 0.180316
v -0.690279 -0.707107 0.153346
v -0.542349 -0.831470 0.120483
v -0.373576 -0.923880 0.082990
v -0.190447 -0.980785 0.042308
v -0.195042 0.980785 0.004341
v -0.382589 0.923880 0.008514
v -0.555432 0.831470 0.012361
v -0.706932 0.707107 0.015733
v -0.831263 0.555570 0.018500
v -0.923651 0.382683 0.020556
v -0.980542 0.195090 0.021822
v -0.999752 -0.000000 0.022249
v -0.980542 -0.195090 0.021822
v -0.923651 -0.382683 0.020556
v -0.831263 -0.555570 0.018500
v -0.706932 -0.707107 0.015733
v -0.555432 -0.831470 0.012361
v -0.382589 -0.923880 0.008515
v -0.195042 -0.980785 0.004341
v -0.192141 0.980785 -0.033794
v -0.376899 0.923880 -0.066289
v -0.547172 0.831470 -0.096236
v -0.696417 0.707107 -0.122485
v -0.818900 0.555570 -0.144027
v -0.909913 0.382683 -0.160034
v -0.965958 0.195090 -0.169892
v -0.984882 -0.000000 -0.173220
v -0.965958 -0.195090 -0.169892
v -0.909913 -0.382683 -0.160034
v -0.818900 -0.555570 -0.144027
v -0.696417 -0.707107 -0.122485
v -0.547172 -0.831470 -0.096236
v -0.376899 -0.923880 -0.066288
v -0.192141 -0.980785 -0.033794
v -0.181856 0.980785 -0.070629
v -0.356724 0.923880 -0.138544
v -0.517883 0.831470 -0.201135
v -0.659140 0.707107 -0.255996
v -0.775067 0.555570 -0.301019
v -0.861208 0.382683 -0.334474
v -0.914254 0.195090 -0.355076
v -0.932165 -0.000000 -0.362033
v -0.914254 -0.195090 -0.355076
v -0.861208 -0.382683 -0.334475
v -0.775067 -0.555570 -0.301019
v -0.659140 -0.707107 -0.255996
v -0.517883 -0.831470 -0.201135
v -0.356724 -0.923880 -0.138544
v -0.181856 -0.980785 -0.070629
v -0.164583 0.980785 -0.104750
v -0.322841 0.923880 -0.205475
v -0.468693 0.831470 -0.298304
v -0.596533 0.707107 -0.379669
v -0.701448 0.555570 -0.446443
v -0.779408 0.382683 -0.496061
v -0.827415 0.195090 -0.526616
v -0.843624 -0.000000 -0.536933
v -0.827415 -0.195090 -0.526616
v -0.779408 -0.382683 -0.496061
v -0.701448 -0.555570 -0.446443
v -0.596533 -0.707107 -0.379669
v -0.468693 -0.831470 -0.298304
v -0.322841 -0.923880 -0.205475
v -0.164583 -0.980785 -0.104750
v -0.140985 0.980785 -0.134846
v -0.276552 0.923880 -0.264510
v -0.401491 0.831470 -0.384009
v -0.511001 0.707107 -0.488751
v -0.600873 0.555570 -0.574711
v -0.667655 0.382683 -0.638584
v -0.708778 0.195090 -0.677917
v -0.722664 -0.000000 -0.691199
v -0.708778 -0.195090 -0.677917
v -0.667655 -0.382683 -0.638584
v -0.600873 -0.555570 -0.574711
v -0.511001 -0.707107 -0.488751
v -0.401491 -0.831470 -0.384009
v -0.276552 -0.923880 -0.264510
v -0.140985 -0.980785 -0.134846
v -0.111969 0.980785 -0.159760
v -0.219634 0.923880 -0.313381
v -0.318860 0.831470 -0.454958
v -0.405831 0.707107 -0.579051
v -0.477207 0.555570 -0.680892
v -0.530244 0.382683 -0.756567
v -0.562904 0.195090 -0.803167
v -0.573932 -0.000000 -0.818902
v -0.562904 -0.195090 -0.803167
v -0.530244 -0.382683 -0.756567
v -0.477207 -0.555570 -0.680892
v -0.405831 -0.707107 -0.579051
v -0.318860 -0.831470 -0.454958
v -0.219634 -0.923880 -0.313380
v -0.111969 -0.980785 -0.159760
v -0.000000 1.000000 -0.000000
v -0.078650 0.980785 -0.178534
v -0.154277 0.923880 -0.350208
v -0.223975 0.831470 -0.508422
v -0.285066 0.707107 -0.647099
v -0.335202 0.555570 -0.760908
v -0.372457 0.382683 -0.845475
v -0.395398 0.195090 -0.897552
v -0.403144 -0.000000 -0.915136
v -0.395398 -0.195090 -0.897552
v -0.372457 -0.382683 -0.845475
v -0.335202 -0.555570 -0.760908
v -0.285066 -0.707107 -0.647099
v -0.223975 -0.831470 -0.508422
v -0.154277 -0.923880 -0.350207
v -0.078650 -0.980785 -0.178534
v -0.042308 0.980785 -0.190448
v -0.082990 0.923880 -0.373576
v -0.120483 0.831470 -0.542348
v -0.153346 0.707107 -0.690279
v -0.180316 0.555570 -0.811682
v -0.200356 0.382683 -0.901893
v -0.212697 0.195090 -0.957444
v -0.216863 -0.000000 -0.976201
v -0.212697 -0.195090 -0.957444
v -0.200356 -0.382683 -0.901893
v -0.180316 -0.555570 -0.811682
v -0.153346 -0.707107 -0.690279
v -0.120483 -0.831470 -0.542348
v -0.082990 -0.923880 -0.373576
v -0.042308 -0.980785 -0.190447
v -0.004341 0.980785 -0.195042
v -0.008514 0.923880 -0.382589
v -0.012361 0.831470 -0.555432
v -0.015733 0.707107 -0.706932
v -0.018500 0.555570 -0.831263
v -0.020556 0.382683 -0.923651
v -0.021822 0.195090 -0.980542
v -0.022249 -0.000000 -0.999752
v -0.021822 -0.195090 -0.980542
v -0.020556 -0.382683 -0.923651
v -0.018500 -0.555570 -0.831263
v -0.015733 -0.707107 -0.706931
v -0.012361 -0.831470 -0.555432
v -0.008514 -0.923880 -0.382589
v -0.004341 -0.980785 -0.195042
v 0.033794 0.980785 -0.192141
v 0.066288 0.923880 -0.376898
v 0.096236 0.831470 -0.547171
v 0.122485 0.707107 -0.696417
v 0.144027 0.555570 -0.818900
v 0.160034 0.382683 -0.909913
v 0.169892 0.195090 -0.965958
v 0.173220 -0.000000 -0.984882
v 0.169892 -0.195090 -0.965958
v 0.160035 -0.382683 -0.909913
v 0.144027 -0.555570 -0.818900
v 0.122485 -0.707107 -0.696417
v 0.096236 -0.831470 -0.547171
v 0.066288 -0.923880 -0.376898
v 0.033794 -0.980785 -0.192141
v 0.070629 0.980785 -0.181856
v 0.138544 0.923880 -0.356724
v 0.201135 0.831470 -0.517883
v 0.255996 0.707107 -0.659140
v 0.301019 0.555570 -0.775067
v 0.334475 0.382683 -0.861208
v 0.355076 0.195090 -0.914254
v 0.362033 -0.000000 -0.932164
v 0.355076 -0.195090 -0.914254
v 0.334475 -0.382683 -0.861208
v 0.301019 -0.555570 -0.775067
v 0.255996 -0.707107 -0.659140
v 0.201135 -0.831470 -0.517883
v 0.138544 -0.923880 -0.356724
v 0.070629 -0.980785 -0.181856
v 0.104750 0.980785 -0.164583
v 0.205475 0.923880 -0.322841
v 0.298304 0.831470 -0.468693
v 0.379669 0.707107 -0.596533
v 0.446443 0.555570 -0.701448
v 0.496061 0.382683 -0.779408
v 0.526616 0.195090 -0.827414
v 0.536933 -0.000000 -0.843624
v 0.526616 -0.195090 -0.827414
v 0.496061 -0.382683 -0.779408
v 0.446443 -0.555570 -0.701448
v 0.379669 -0.707107 -0.596533
v 0.298304 -0.831470 -0.468693
v 0.205475 -0.923880 -0.322841
v 0.104750 -0.980785 -0.164583
v 0.134846 0.980785 -0.140985
v 0.264510 0.923880 -0.276552
v 0.384009 0.831470 -0.401491
v 0.488751 0.707107 -0.511001
v 0.574711 0.555570 -0.600873
v 0.638584 0.382683 -0.667655
v 0.677918 0.195090 -0.708778
v 0.691199 -0.000000 -0.722663
v 0.677918 -0.195090 -0.708778
v 0.638584 -0.382683 -0.667655
v 0.574711 -0.555570 -0.600873
v 0.488751 -0.707107 -0.511001
v 0.384009 -0.831470 -0.401491
v 0.264510 -0.923880 -0.276552
v 0.134846 -0.980785 -0.140985
v 0.159760 0.980785 -0.111969
v 0.313380 0.923880 -0.219634
v 0.454958 0.831470 -0.318860
v 0.579051 0.707107 -0.405831
v 0.680892 0.555570 -0.477207
v 0.756567 0.382683 -0.530244
v 0.803167 0.195090 -0.562904
v 0.818902 -0.000000 -0.573932
v 0.803167 -0.195090 -0.562904
v 0.756567 -0.382683 -0.530244
v 0.680892 -0.555570 -0.477207
v 0.579051 -0.707107 -0.405831
v 0.454958 -0.831470 -0.318859
v 0.313380 -0.923880 -0.219634
v 0.159760 -0.980785 -0.111969
v 0.178534 0.980785 -0.078650
v 0.350207 0.923880 -0.154277
v 0.508422 0.831470 -0.223975
v 0.647099 0.707107 -0.285066
v 0.760908 0.555570 -0.335202
v 0.845475 0.382683 -0.372457
v 0.897552 0.195090 -0.395398
v 0.915136 -0.000000 -0.403144
v 0.897552 -0.195090 -0.395398
v 0.845476 -0.382683 -0.372457
v 0.760908 -0.555570 -0.335202
v 0.647099 -0.707107 -0.285066
v 0.508422 -0.831470 -0.223975
v 0.350207 -0.923880 -0.154277
v 0.178534 -0.980785 -0.078650
v 0.190447 0.980785 -0.042308
v 0.373576 0.923880 -0.082990
v 0.542348 0.831470 -0.120483
v 0.690279 0.707107 -0.153346
v 0.811682 0.555570 -0.180316
v 0.901893 0.382683 -0.200356
v 0.957444 0.195090 -0.212697
v 0.976201 -0.000000 -0.216863
v 0.957444 -0.195090 -0.212697
v 0.901893 -0.382683 -0.200356
v 0.811682 -0.555570 -0.180316
v 0.690279 -0.707107 -0.153346
v 0.542348 -0.831470 -0.120483
v 0.373576 -0.923880 -0.082990
v 0.190447 -0.980785 -0.042308
v 0.999751 -0.000000 -0.022249
v 0.980542 -0.195090 -0.021822
v 0.923651 -0.382683 -0.020556
v 0.382589 -0.923880 -0.008514
v 0.195042 -0.980785 -0.004341
v 0.000000 -1.000000 0.000000
vn 0.7100 -0.7041 -0.0158
vn 0.8331 -0.5528 -0.0185
vn 0.8207 -0.5528 0.1444
vn 0.6994 -0.7041 0.1230
vn 0.8331 0.5528 -0.0185
vn 0.7100 0.7041 -0.0158
vn 0.6994 0.7041 0.1230
vn 0.8207 0.5528 0.1444
vn 0.5596 -0.8286 -0.0125
vn 0.5513 -0.8286 0.0970
vn 0.9245 0.3805 -0.0206
vn 0.9108 0.3805 0.1602
vn 0.3878 -0.9217 -0.0086
vn 0.3820 -0.9217 0.0672
vn 0.9808 0.1939 -0.0218
vn 0.9662 0.1939 0.1699
vn 0.2009 -0.9796 -0.0045
vn 0.1979 -0.9796 0.0348
vn 0.9998 -0.0000 -0.0223
vn 0.9849 -0.0000 0.1732
vn 0.2009 0.9796 -0.0045
vn -0.0000 1.0000 -0.0000
vn 0.1979 0.9796 0.0348
vn -0.0000 -1.0000 -0.0000
vn 0.9808 -0.1939 -0.0218
vn 0.9662 -0.1939 0.1699
vn 0.3878 0.9217 -0.0086
vn 0.3820 0.9217 0.0672
vn 0.9245 -0.3805 -0.0206
vn 0.9108 -0.3805 0.1602
vn 0.5596 0.8286 -0.0125
vn 0.5513 0.8286 0.0970
vn 0.8620 -0.3805 0.3348
vn 0.7768 -0.5528 0.3017
vn 0.5218 0.8286 0.2027
vn 0.6620 0.7041 0.2571
vn 0.6620 -0.7041 0.2571
vn 0.7768 0.5528 0.3017
vn 0.5218 -0.8286 0.2027
vn 0.8620 0.3805 0.3348
vn 0.3616 -0.9217 0.1404
vn 0.9145 0.1939 0.3552
vn 0.1873 -0.9796 0.0728
vn 0.9322 -0.0000 0.3620
vn 0.1873 0.9796 0.0728
vn 0.9145 -0.1939 0.3552
vn 0.3616 0.9217 0.1404
vn 0.3272 -0.9217 0.2083
vn 0.1695 -0.9796 0.1079
vn 0.8276 0.1939 0.5267
vn 0.8436 -0.0000 0.5369
vn 0.1695 0.9796 0.1079
vn 0.8276 -0.1939 0.5267
vn 0.3272 0.9217 0.2083
vn 0.7802 -0.3805 0.4965
vn 0.4722 0.8286 0.3006
vn 0.7030 -0.5528 0.4474
vn 0.5991 0.7041 0.3813
vn 0.5991 -0.7041 0.3813
vn 0.7030 0.5528 0.4474
vn 0.4722 -0.8286 0.3006
vn 0.7802 0.3805 0.4965
vn 0.4045 0.8286 0.3869
vn 0.5132 0.7041 0.4908
vn 0.6022 -0.5528 0.5760
vn 0.5132 -0.7041 0.4908
vn 0.6022 0.5528 0.5760
vn 0.4045 -0.8286 0.3869
vn 0.6683 0.3805 0.6392
vn 0.2803 -0.9217 0.2681
vn 0.7089 0.1939 0.6781
vn 0.1452 -0.9796 0.1389
vn 0.7227 -0.0000 0.6912
vn 0.1452 0.9796 0.1389
vn 0.7089 -0.1939 0.6781
vn 0.2803 0.9217 0.2681
vn 0.6683 -0.3805 0.6392
vn 0.5630 0.1939 0.8034
vn 0.5739 -0.0000 0.8189
vn 0.1153 0.9796 0.1646
vn 0.1153 -0.9796 0.1646
vn 0.5630 -0.1939 0.8034
vn 0.2226 0.9217 0.3176
vn 0.5308 -0.3805 0.7573
vn 0.3213 0.8286 0.4584
vn 0.4783 -0.5528 0.6824
vn 0.4076 0.7041 0.5815
vn 0.4076 -0.7041 0.5815
vn 0.4783 0.5528 0.6824
vn 0.3213 -0.8286 0.4584
vn 0.5308 0.3805 0.7573
vn 0.2226 -0.9217 0.3176
vn 0.3360 -0.5528 0.7626
vn 0.2863 -0.7041 0.6499
vn 0.2863 0.7041 0.6499
vn 0.3360 0.5528 0.7626
vn 0.2257 -0.8286 0.5123
vn 0.3728 0.3805 0.8463
vn 0.1564 -0.9217 0.3550
vn 0.3955 0.1939 0.8978
vn 0.0810 -0.9796 0.1839
vn 0.4031 -0.0000 0.9151
vn 0.0810 0.9796 0.1839
vn 0.3955 -0.1939 0.8978
vn 0.1564 0.9217 0.3550
vn 0.3728 -0.3805 0.8463
vn 0.2257 0.8286 0.5123
vn 0.0436 0.9796 0.1962
vn 0.0436 -0.9796 0.1962
vn 0.2169 -0.0000 0.9762
vn 0.2127 -0.1939 0.9577
vn 0.0841 0.9217 0.3787
vn 0.2005 -0.3805 0.9028
vn 0.1214 0.8286 0.5465
vn 0.1807 -0.5528 0.8135
vn 0.1540 0.7041 0.6932
vn 0.1540 -0.7041 0.6932
vn 0.1807 0.5528 0.8135
vn 0.1214 -0.8286 0.5465
vn 0.2005 0.3805 0.9028
vn 0.0841 -0.9217 0.3787
vn 0.2127 0.1939 0.9577
vn 0.0158 0.7041 0.7100
vn 0.0185 0.5528 0.8331
vn 0.0158 -0.7041 0.7100
vn 0.0125 -0.8286 0.5596
vn 0.0206 0.3805 0.9245
vn 0.0086 -0.9217 0.3878
vn 0.0218 0.1939 0.9808
vn 0.0045 -0.9796 0.2009
vn 0.0222 -0.0000 0.9998
vn 0.0045 0.9796 0.2009
vn 0.0218 -0.1939 0.9808
vn 0.0086 0.9217 0.3878
vn 0.0206 -0.3805 0.9245
vn 0.0125 0.8286 0.5596
vn 0.0185 -0.5528 0.8331
vn -0.1732 -0.0000 0.9849
vn -0.1699 -0.1939 0.9662
vn -0.0348 0.9796 0.1979
vn -0.0672 0.9217 0.3820
vn -0.1602 -0.3805 0.9108
vn -0.0970 0.8286 0.5513
vn -0.1444 -0.5528 0.8207
vn -0.1230 0.7041 0.6994
vn -0.1230 -0.7041 0.6994
vn -0.1444 0.5528 0.8207
vn -0.0970 -0.8286 0.5513
vn -0.1602 0.3805 0.9108
vn -0.0672 -0.9217 0.3820
vn -0.1699 0.1939 0.9662
vn -0.0348 -0.9796 0.1979
vn -0.2571 -0.7041 0.6620
vn -0.2027 -0.8286 0.5218
vn -0.3017 0.5528 0.7768
vn -0.3348 0.3805 0.8620
vn -0.1404 -0.9217 0.3616
vn -0.3552 0.1939 0.9145
vn -0.0728 -0.9796 0.1873
vn -0.3620 -0.0000 0.9322
vn -0.0728 0.9796 0.1873
vn -0.3552 -0.1939 0.9145
vn -0.1404 0.9217 0.3616
vn -0.3348 -0.3805 0.8620
vn -0.2027 0.8286 0.5218
vn -0.3017 -0.5528 0.7768
vn -0.2571 0.7041 0.6620
vn -0.5267 -0.1939 0.8276
vn -0.4965 -0.3805 0.7802
vn -0.2083 0.9217 0.3272
vn -0.3006 0.8286 0.4722
vn -0.4474 -0.5528 0.7030
vn -0.3813 0.7041 0.5991
vn -0.3813 -0.7041 0.5991
vn -0.4474 0.5528 0.7030
vn -0.3006 -0.8286 0.4722
vn -0.4965 0.3805 0.7802
vn -0.2083 -0.9217 0.3272
vn -0.5267 0.1939 0.8276
vn -0.1079 -0.9796 0.1695
vn -0.5369 -0.0000 0.8436
vn -0.1079 0.9796 0.1695
vn -0.3869 -0.8286 0.4045
vn -0.2681 -0.9217 0.2803
vn -0.6392 0.3805 0.6683
vn -0.6781 0.1939 0.7089
vn -0.1389 -0.9796 0.1452
vn -0.6912 -0.0000 0.7227
vn -0.1389 0.9796 0.1452
vn -0.6781 -0.1939 0.7089
vn -0.2681 0.9217 0.2803
vn -0.6392 -0.3805 0.6683
vn -0.3869 0.8286 0.4045
vn -0.5760 -0.5528 0.6022
vn -0.4908 0.7041 0.5132
vn -0.4908 -0.7041 0.5132
vn -0.5760 0.5528 0.6022
vn -0.3176 0.9217 0.2226
vn -0.4584 0.8286 0.3213
vn -0.7573 -0.3805 0.5308
vn -0.6824 -0.5528 0.4783
vn -0.5815 0.7041 0.4076
vn -0.5815 -0.7041 0.4076
vn -0.6824 0.5528 0.4783
vn -0.4584 -0.8286 0.3213
vn -0.7573 0.3805 0.5308
vn -0.3176 -0.9217 0.2226
vn -0.8034 0.1939 0.5630
vn -0.1646 -0.9796 0.1153
vn -0.8189 -0.0000 0.5739
vn -0.1646 0.9796 0.1153
vn -0.8034 -0.1939 0.5630
vn -0.8463 0.3805 0.3728
vn -0.8978 0.1939 0.3955
vn -0.3550 -0.9217 0.1564
vn -0.1839 -0.9796 0.0810
vn -0.9151 -0.0000 0.4031
vn -0.1839 0.9796 0.0810
vn -0.8978 -0.1939 0.3955
vn -0.3550 0.9217 0.1564
vn -0.8463 -0.3805 0.3728
vn -0.5123 0.8286 0.2257
vn -0.7626 -0.5528 0.3360
vn -0.6499 0.7041 0.2863
vn -0.6499 -0.7041 0.2863
vn -0.7626 0.5528 0.3360
vn -0.5123 -0.8286 0.2257
vn -0.9028 -0.3805 0.2005
vn -0.8135 -0.5528 0.1807
vn -0.5465 0.8286 0.1214
vn -0.6932 0.7041 0.1540
vn -0.6932 -0.7041 0.1540
vn -0.8135 0.5528 0.1807
vn -0.5465 -0.8286 0.1214
vn -0.9028 0.3805 0.2005
vn -0.3787 -0.9217 0.0841
vn -0.9577 0.1939 0.2127
vn -0.1962 -0.9796 0.0436
vn -0.9762 -0.0000 0.2169
vn -0.1962 0.9796 0.0436
vn -0.9577 -0.1939 0.2127
vn -0.3787 0.9217 0.0841
vn -0.3878 -0.9217 0.0086
vn -0.2009 -0.9796 0.0045
vn -0.9808 0.1939 0.0218
vn -0.9998 -0.0000 0.0222
vn -0.2009 0.9796 0.0045
vn -0.9808 -0.1939 0.0218
vn -0.3878 0.9217 0.0086
vn -0.9245 -0.3805 0.0206
vn -0.5596 0.8286 0.0125
vn -0.8331 -0.5528 0.0185
vn -0.7100 0.7041 0.0158
vn -0.7100 -0.7041 0.0158
vn -0.8331 0.5528 0.0185
vn -0.5596 -0.8286 0.0125
vn -0.9245 0.3805 0.0206
vn -0.5513 0.8286 -0.0970
vn -0.6994 0.7041 -0.1230
vn -0.8207 -0.5528 -0.1444
vn -0.6994 -0.7041 -0.1230
vn -0.8207 0.5528 -0.1444
vn -0.5513 -0.8286 -0.0970
vn -0.9108 0.3805 -0.1602
vn -0.3820 -0.9217 -0.0672
vn -0.9662 0.1939 -0.1699
vn -0.1979 -0.9796 -0.0348
vn -0.9849 -0.0000 -0.1732
vn -0.1979 0.9796 -0.0348
vn -0.9662 -0.1939 -0.1699
vn -0.3820 0.9217 -0.0672
vn -0.9108 -0.3805 -0.1602
vn -0.9145 0.1939 -0.3552
vn -0.9322 -0.0000 -0.3620
vn -0.1873 0.9796 -0.0728
vn -0.1873 -0.9796 -0.0728
vn -0.9145 -0.1939 -0.3552
vn -0.3616 0.9217 -0.1404
vn -0.8620 -0.3805 -0.3348
vn -0.5218 0.8286 -0.2027
vn -0.7768 -0.5528 -0.3017
vn -0.6620 0.7041 -0.2571
vn -0.6620 -0.7041 -0.2571
vn -0.7768 0.5528 -0.3017
vn -0.5218 -0.8286 -0.2027
vn -0.8620 0.3805 -0.3348
vn -0.3616 -0.9217 -0.1404
vn -0.7030 -0.5528 -0.4474
vn -0.5991 -0.7041 -0.3813
vn -0.5991 0.7041 -0.3813
vn -0.7030 0.5528 -0.4474
vn -0.4722 -0.8286 -0.3006
vn -0.7802 0.3805 -0.4965
vn -0.3272 -0.9217 -0.2083
vn -0.8276 0.1939 -0.5267
vn -0.1695 -0.9796 -0.1079
vn -0.8436 -0.0000 -0.5369
vn -0.1695 0.9796 -0.1079
vn -0.8276 -0.1939 -0.5267
vn -0.3272 0.9217 -0.2083
vn -0.7802 -0.3805 -0.4965
vn -0.4722 0.8286 -0.3006
vn -0.1452 -0.9796 -0.1389
vn -0.7227 -0.0000 -0.6912
vn -0.7089 -0.1939 -0.6781
vn -0.1452 0.9796 -0.1389
vn -0.2803 0.9217 -0.2681
vn -0.6683 -0.3805 -0.6392
vn -0.4045 0.8286 -0.3869
vn -0.6022 -0.5528 -0.5760
vn -0.5132 0.7041 -0.4908
vn -0.5132 -0.7041 -0.4908
vn -0.6022 0.5528 -0.5760
vn -0.4045 -0.8286 -0.3869
vn -0.6683 0.3805 -0.6392
vn -0.2803 -0.9217 -0.2681
vn -0.7089 0.1939 -0.6781
vn -0.4076 -0.7041 -0.5815
vn -0.3213 -0.8286 -0.4584
vn -0.4783 0.5528 -0.6824
vn -0.5308 0.3805 -0.7573
vn -0.2226 -0.9217 -0.3176
vn -0.5630 0.1939 -0.8034
vn -0.1153 -0.9796 -0.1646
vn -0.5739 -0.0000 -0.8189
vn -0.1153 0.9796 -0.1646
vn -0.5630 -0.1939 -0.8034
vn -0.2226 0.9217 -0.3176
vn -0.5308 -0.3805 -0.7573
vn -0.3213 0.8286 -0.4584
vn -0.4783 -0.5528 -0.6824
vn -0.4076 0.7041 -0.5815
vn -0.0810 0.9796 -0.1839
vn -0.1564 0.9217 -0.3550
vn -0.3955 -0.1939 -0.8978
vn -0.3728 -0.3805 -0.8463
vn -0.2257 0.8286 -0.5123
vn -0.3360 -0.5528 -0.7626
vn -0.2863 0.7041 -0.6499
vn -0.2863 -0.7041 -0.6499
vn -0.3360 0.5528 -0.7626
vn -0.2257 -0.8286 -0.5123
vn -0.3728 0.3805 -0.8463
vn -0.1564 -0.9217 -0.3550
vn -0.3955 0.1939 -0.8978
vn -0.0810 -0.9796 -0.1839
vn -0.4031 -0.0000 -0.9151
vn -0.1807 0.5528 -0.8135
vn -0.2005 0.3805 -0.9028
vn -0.1214 -0.8286 -0.5465
vn -0.0841 -0.9217 -0.3787
vn -0.2127 0.1939 -0.9577
vn -0.0436 -0.9796 -0.1962
vn -0.2169 -0.0000 -0.9762
vn -0.0436 0.9796 -0.1962
vn -0.2127 -0.1939 -0.9577
vn -0.0841 0.9217 -0.3787
vn -0.2005 -0.3805 -0.9028
vn -0.1214 0.8286 -0.5465
vn -0.1807 -0.5528 -0.8135
vn -0.1540 0.7041 -0.6932
vn -0.1540 -0.7041 -0.6932
vn -0.0218 -0.1939 -0.9808
vn -0.0206 -0.3805 -0.9245
vn -0.0086 0.9217 -0.3878
vn -0.0125 0.8286 -0.5596
vn -0.0185 -0.5528 -0.8331
vn -0.0158 0.7041 -0.7100
vn -0.0158 -0.7041 -0.7100
vn -0.0185 0.5528 -0.8331
vn -0.0125 -0.8286 -0.5596
vn -0.0206 0.3805 -0.9245
vn -0.0086 -0.9217 -0.3878
vn -0.0218 0.1939 -0.9808
vn -0.0045 -0.9796 -0.2009
vn -0.0222 -0.0000 -0.9998
vn -0.0045 0.9796 -0.2009
vn 0.0970 -0.8286 -0.5513
vn 0.0672 -0.9217 -0.3820
vn 0.1602 0.3805 -0.9108
vn 0.1699 0.1939 -0.9662
vn 0.0348 -0.9796 -0.1979
vn 0.1732 -0.0000 -0.9849
vn 0.0348 0.9796 -0.1979
vn 0.1699 -0.1939 -0.9662
vn 0.0672 0.9217 -0.3820
vn 0.1602 -0.3805 -0.9108
vn 0.0970 0.8286 -0.5513
vn 0.1444 -0.5528 -0.8207
vn 0.1230 0.7041 -0.6994
vn 0.1230 -0.7041 -0.6994
vn 0.1444 0.5528 -0.8207
vn 0.1404 0.9217 -0.3616
vn 0.2027 0.8286 -0.5218
vn 0.3348 -0.3805 -0.8620
vn 0.3017 -0.5528 -0.7768
vn 0.2571 0.7041 -0.6620
vn 0.2571 -0.7041 -0.6620
vn 0.3017 0.5528 -0.7768
vn 0.2027 -0.8286 -0.5218
vn 0.3348 0.3805 -0.8620
vn 0.1404 -0.9217 -0.3616
vn 0.3552 0.1939 -0.9145
vn 0.0728 -0.9796 -0.1873
vn 0.3620 -0.0000 -0.9322
vn 0.0728 0.9796 -0.1873
vn 0.3552 -0.1939 -0.9145
vn 0.4965 0.3805 -0.7802
vn 0.5267 0.1939 -0.8276
vn 0.2083 -0.9217 -0.3272
vn 0.1079 -0.9796 -0.1695
vn 0.5369 -0.0000 -0.8436
vn 0.1079 0.9796 -0.1695
vn 0.5267 -0.1939 -0.8276
vn 0.2083 0.9217 -0.3272
vn 0.4965 -0.3805 -0.7802
vn 0.3006 0.8286 -0.4722
vn 0.4474 -0.5528 -0.7030
vn 0.3813 0.7041 -0.5991
vn 0.3813 -0.7041 -0.5991
vn 0.4474 0.5528 -0.7030
vn 0.3006 -0.8286 -0.4722
vn 0.6392 -0.3805 -0.6683
vn 0.5760 -0.5528 -0.6022
vn 0.3869 0.8286 -0.4045
vn 0.4908 0.7041 -0.5132
vn 0.4908 -0.7041 -0.5132
vn 0.5760 0.5528 -0.6022
vn 0.3869 -0.8286 -0.4045
vn 0.6392 0.3805 -0.6683
vn 0.2681 -0.9217 -0.2803
vn 0.6781 0.1939 -0.7089
vn 0.1389 -0.9796 -0.1452
vn 0.6912 -0.0000 -0.7227
vn 0.1389 0.9796 -0.1452
vn 0.6781 -0.1939 -0.7089
vn 0.2681 0.9217 -0.2803
vn 0.3176 -0.9217 -0.2226
vn 0.1646 -0.9796 -0.1153
vn 0.8034 0.1939 -0.5630
vn 0.8189 -0.0000 -0.5739
vn 0.1646 0.9796 -0.1153
vn 0.8034 -0.1939 -0.5630
vn 0.3176 0.9217 -0.2226
vn 0.7573 -0.3805 -0.5308
vn 0.4584 0.8286 -0.3213
vn 0.6824 -0.5528 -0.4783
vn 0.5815 0.7041 -0.4076
vn 0.5815 -0.7041 -0.4076
vn 0.6824 0.5528 -0.4783
vn 0.4584 -0.8286 -0.3213
vn 0.7573 0.3805 -0.5308
vn 0.7626 -0.5528 -0.3360
vn 0.6499 -0.7041 -0.2863
vn 0.6499 0.7041 -0.2863
vn 0.7626 0.5528 -0.3360
vn 0.5123 -0.8286 -0.2257
vn 0.8463 0.3805 -0.3728
vn 0.3550 -0.9217 -0.1564
vn 0.8978 0.1939 -0.3955
vn 0.1839 -0.9796 -0.0810
vn 0.9151 -0.0000 -0.4031
vn 0.1839 0.9796 -0.0810
vn 0.8978 -0.1939 -0.3955
vn 0.3550 0.9217 -0.1564
vn 0.8463 -0.3805 -0.3728
vn 0.5123 0.8286 -0.2257
vn 0.1962 0.9796 -0.0436
vn 0.1962 -0.9796 -0.0436
vn 0.9762 -0.0000 -0.2169
vn 0.9577 -0.1939 -0.2127
vn 0.3787 0.9217 -0.0841
vn 0.9028 -0.3805 -0.2005
vn 0.5465 0.8286 -0.1214
vn 0.8135 -0.5528 -0.1807
vn 0.6932 0.7041 -0.1540
vn 0.6932 -0.7041 -0.1540
vn 0.8135 0.5528 -0.1807
vn 0.5465 -0.8286 -0.1214
vn 0.9028 0.3805 -0.2005
vn 0.3787 -0.9217 -0.0841
vn 0.9577 0.1939 -0.2127
vt 0.750000 0.250000
vt 0.750000 0.312500
vt 0.718750 0.312500
vt 0.718750 0.250000
vt 0.750000 0.687500
vt 0.750000 0.750000
vt 0.718750 0.750000
vt 0.718750 0.687500
vt 0.750000 0.187500
vt 0.718750 0.187500
vt 0.750000 0.625000
vt 0.718750 0.625000
vt 0.750000 0.125000
vt 0.718750 0.125000
vt 0.750000 0.562500
vt 0.718750 0.562500
vt 0.750000 0.062500
vt 0.718750 0.062500
vt 0.750000 0.500000
vt 0.718750 0.500000
vt 0.750000 0.937500
vt 0.734375 1.000000
vt 0.718750 0.937500
vt 0.734375 0.000000
vt 0.750000 0.437500
vt 0.718750 0.437500
vt 0.750000 0.875000
vt 0.718750 0.875000
vt 0.750000 0.375000
vt 0.718750 0.375000
vt 0.750000 0.812500
vt 0.718750 0.812500
vt 0.687500 0.375000
vt 0.687500 0.312500
vt 0.687500 0.812500
vt 0.687500 0.750000
vt 0.687500 0.250000
vt 0.687500 0.687500
vt 0.687500 0.187500
vt 0.687500 0.625000
vt 0.687500 0.125000
vt 0.687500 0.562500
vt 0.687500 0.062500
vt 0.687500 0.500000
vt 0.703125 1.000000
vt 0.687500 0.937500
vt 0.703125 0.000000
vt 0.687500 0.437500
vt 0.687500 0.875000
vt 0.656250 0.125000
vt 0.656250 0.062500
vt 0.656250 0.562500
vt 0.656250 0.500000
vt 0.671875 1.000000
vt 0.656250 0.937500
vt 0.671875 0.000000
vt 0.656250 0.437500
vt 0.656250 0.875000
vt 0.656250 0.375000
vt 0.656250 0.812500
vt 0.656250 0.312500
vt 0.656250 0.750000
vt 0.656250 0.250000
vt 0.656250 0.687500
vt 0.656250 0.187500
vt 0.656250 0.625000
vt 0.625000 0.812500
vt 0.625000 0.750000
vt 0.625000 0.312500
vt 0.625000 0.250000
vt 0.625000 0.687500
vt 0.625000 0.187500
vt 0.625000 0.625000
vt 0.625000 0.125000
vt 0.625000 0.562500
vt 0.625000 0.062500
vt 0.625000 0.500000
vt 0.640625 1.000000
vt 0.625000 0.937500
vt 0.640625 0.000000
vt 0.625000 0.437500
vt 0.625000 0.875000
vt 0.625000 0.375000
vt 0.593750 0.562500
vt 0.593750 0.500000
vt 0.609375 1.000000
vt 0.593750 0.937500
vt 0.609375 0.000000
vt 0.593750 0.062500
vt 0.593750 0.437500
vt 0.593750 0.875000
vt 0.593750 0.375000
vt 0.593750 0.812500
vt 0.593750 0.312500
vt 0.593750 0.750000
vt 0.593750 0.250000
vt 0.593750 0.687500
vt 0.593750 0.187500
vt 0.593750 0.625000
vt 0.593750 0.125000
vt 0.562500 0.312500
vt 0.562500 0.250000
vt 0.562500 0.750000
vt 0.562500 0.687500
vt 0.562500 0.187500
vt 0.562500 0.625000
vt 0.562500 0.125000
vt 0.562500 0.562500
vt 0.562500 0.062500
vt 0.562500 0.500000
vt 0.578125 1.000000
vt 0.562500 0.937500
vt 0.578125 0.000000
vt 0.562500 0.437500
vt 0.562500 0.875000
vt 0.562500 0.375000
vt 0.562500 0.812500
vt 0.546875 1.000000
vt 0.531250 0.937500
vt 0.546875 0.000000
vt 0.531250 0.062500
vt 0.531250 0.500000
vt 0.531250 0.437500
vt 0.531250 0.875000
vt 0.531250 0.375000
vt 0.531250 0.812500
vt 0.531250 0.312500
vt 0.531250 0.750000
vt 0.531250 0.250000
vt 0.531250 0.687500
vt 0.531250 0.187500
vt 0.531250 0.625000
vt 0.531250 0.125000
vt 0.531250 0.562500
vt 0.500000 0.750000
vt 0.500000 0.687500
vt 0.500000 0.250000
vt 0.500000 0.187500
vt 0.500000 0.625000
vt 0.500000 0.125000
vt 0.500000 0.562500
vt 0.500000 0.062500
vt 0.500000 0.500000
vt 0.515625 1.000000
vt 0.500000 0.937500
vt 0.515625 0.000000
vt 0.500000 0.437500
vt 0.500000 0.875000
vt 0.500000 0.375000
vt 0.500000 0.812500
vt 0.500000 0.312500
vt 0.468750 0.500000
vt 0.468750 0.437500
vt 0.468750 0.937500
vt 0.468750 0.875000
vt 0.468750 0.375000
vt 0.468750 0.812500
vt 0.468750 0.312500
vt 0.468750 0.750000
vt 0.468750 0.250000
vt 0.468750 0.687500
vt 0.468750 0.187500
vt 0.468750 0.625000
vt 0.468750 0.125000
vt 0.468750 0.562500
vt 0.468750 0.062500
vt 0.484375 1.000000
vt 0.484375 0.000000
vt 0.437500 0.250000
vt 0.437500 0.187500
vt 0.437500 0.687500
vt 0.437500 0.625000
vt 0.437500 0.125000
vt 0.437500 0.562500
vt 0.437500 0.062500
vt 0.437500 0.500000
vt 0.453125 1.000000
vt 0.437500 0.937500
vt 0.453125 0.000000
vt 0.437500 0.437500
vt 0.437500 0.875000
vt 0.437500 0.375000
vt 0.437500 0.812500
vt 0.437500 0.312500
vt 0.437500 0.750000
vt 0.406250 0.437500
vt 0.406250 0.375000
vt 0.406250 0.875000
vt 0.406250 0.812500
vt 0.406250 0.312500
vt 0.406250 0.750000
vt 0.406250 0.250000
vt 0.406250 0.687500
vt 0.406250 0.187500
vt 0.406250 0.625000
vt 0.406250 0.125000
vt 0.406250 0.562500
vt 0.406250 0.062500
vt 0.406250 0.500000
vt 0.421875 1.000000
vt 0.406250 0.937500
vt 0.421875 0.000000
vt 0.375000 0.187500
vt 0.375000 0.125000
vt 0.375000 0.625000
vt 0.375000 0.562500
vt 0.375000 0.062500
vt 0.375000 0.500000
vt 0.390625 1.000000
vt 0.375000 0.937500
vt 0.390625 0.000000
vt 0.375000 0.437500
vt 0.375000 0.875000
vt 0.375000 0.375000
vt 0.375000 0.812500
vt 0.375000 0.312500
vt 0.375000 0.750000
vt 0.375000 0.250000
vt 0.375000 0.687500
vt 0.343750 0.875000
vt 0.343750 0.812500
vt 0.343750 0.375000
vt 0.343750 0.312500
vt 0.343750 0.750000
vt 0.343750 0.250000
vt 0.343750 0.687500
vt 0.343750 0.187500
vt 0.343750 0.625000
vt 0.343750 0.125000
vt 0.343750 0.562500
vt 0.343750 0.062500
vt 0.343750 0.500000
vt 0.359375 1.000000
vt 0.343750 0.937500
vt 0.359375 0.000000
vt 0.343750 0.437500
vt 0.312500 0.625000
vt 0.312500 0.562500
vt 0.312500 0.125000
vt 0.312500 0.062500
vt 0.312500 0.500000
vt 0.328125 1.000000
vt 0.312500 0.937500
vt 0.328125 0.000000
vt 0.312500 0.437500
vt 0.312500 0.875000
vt 0.312500 0.375000
vt 0.312500 0.812500
vt 0.312500 0.312500
vt 0.312500 0.750000
vt 0.312500 0.250000
vt 0.312500 0.687500
vt 0.312500 0.187500
vt 0.281250 0.375000
vt 0.281250 0.312500
vt 0.281250 0.812500
vt 0.281250 0.750000
vt 0.281250 0.250000
vt 0.281250 0.687500
vt 0.281250 0.187500
vt 0.281250 0.625000
vt 0.281250 0.125000
vt 0.281250 0.562500
vt 0.281250 0.062500
vt 0.281250 0.500000
vt 0.296875 1.000000
vt 0.281250 0.937500
vt 0.296875 0.000000
vt 0.281250 0.437500
vt 0.281250 0.875000
vt 0.250000 0.125000
vt 0.250000 0.062500
vt 0.250000 0.562500
vt 0.250000 0.500000
vt 0.265625 1.000000
vt 0.250000 0.937500
vt 0.265625 0.000000
vt 0.250000 0.437500
vt 0.250000 0.875000
vt 0.250000 0.375000
vt 0.250000 0.812500
vt 0.250000 0.312500
vt 0.250000 0.750000
vt 0.250000 0.250000
vt 0.250000 0.687500
vt 0.250000 0.187500
vt 0.250000 0.625000
vt 0.218750 0.812500
vt 0.218750 0.750000
vt 0.218750 0.312500
vt 0.218750 0.250000
vt 0.218750 0.687500
vt 0.218750 0.187500
vt 0.218750 0.625000
vt 0.218750 0.125000
vt 0.218750 0.562500
vt 0.218750 0.062500
vt 0.218750 0.500000
vt 0.234375 1.000000
vt 0.218750 0.937500
vt 0.234375 0.000000
vt 0.218750 0.437500
vt 0.218750 0.875000
vt 0.218750 0.375000
vt 0.187500 0.562500
vt 0.187500 0.500000
vt 0.203125 1.000000
vt 0.187500 0.937500
vt 0.203125 0.000000
vt 0.187500 0.062500
vt 0.187500 0.437500
vt 0.187500 0.875000
vt 0.187500 0.375000
vt 0.187500 0.812500
vt 0.187500 0.312500
vt 0.187500 0.750000
vt 0.187500 0.250000
vt 0.187500 0.687500
vt 0.187500 0.187500
vt 0.187500 0.625000
vt 0.187500 0.125000
vt 0.156250 0.312500
vt 0.156250 0.250000
vt 0.156250 0.750000
vt 0.156250 0.687500
vt 0.156250 0.187500
vt 0.156250 0.625000
vt 0.156250 0.125000
vt 0.156250 0.562500
vt 0.156250 0.062500
vt 0.156250 0.500000
vt 0.171875 1.000000
vt 0.156250 0.937500
vt 0.171875 0.000000
vt 0.156250 0.437500
vt 0.156250 0.875000
vt 0.156250 0.375000
vt 0.156250 0.812500
vt 0.140625 0.000000
vt 0.125000 0.062500
vt 0.125000 0.500000
vt 0.125000 0.437500
vt 0.125000 0.937500
vt 0.125000 0.875000
vt 0.125000 0.375000
vt 0.125000 0.812500
vt 0.125000 0.312500
vt 0.125000 0.750000
vt 0.125000 0.250000
vt 0.125000 0.687500
vt 0.125000 0.187500
vt 0.125000 0.625000
vt 0.125000 0.125000
vt 0.125000 0.562500
vt 0.140625 1.000000
vt 0.093750 0.250000
vt 0.093750 0.187500
vt 0.093750 0.687500
vt 0.093750 0.625000
vt 0.093750 0.125000
vt 0.093750 0.562500
vt 0.093750 0.062500
vt 0.093750 0.500000
vt 0.109375 1.000000
vt 0.093750 0.937500
vt 0.109375 0.000000
vt 0.093750 0.437500
vt 0.093750 0.875000
vt 0.093750 0.375000
vt 0.093750 0.812500
vt 0.093750 0.312500
vt 0.093750 0.750000
vt 0.062500 0.937500
vt 0.062500 0.875000
vt 0.062500 0.437500
vt 0.062500 0.375000
vt 0.062500 0.812500
vt 0.062500 0.312500
vt 0.062500 0.750000
vt 0.062500 0.250000
vt 0.062500 0.687500
vt 0.062500 0.187500
vt 0.062500 0.625000
vt 0.062500 0.125000
vt 0.062500 0.562500
vt 0.062500 0.062500
vt 0.062500 0.500000
vt 0.078125 1.000000
vt 0.078125 0.000000
vt 0.031250 0.687500
vt 0.031250 0.625000
vt 0.031250 0.187500
vt 0.031250 0.125000
vt 0.031250 0.562500
vt 0.031250 0.062500
vt 0.031250 0.500000
vt 0.046875 1.000000
vt 0.031250 0.937500
vt 0.046875 0.000000
vt 0.031250 0.437500
vt 0.031250 0.875000
vt 0.031250 0.375000
vt 0.031250 0.812500
vt 0.031250 0.312500
vt 0.031250 0.750000
vt 0.031250 0.250000
vt 0.000000 0.437500
vt 0.000000 0.375000
vt 0.000000 0.875000
vt 0.000000 0.812500
vt 0.000000 0.312500
vt 0.000000 0.750000
vt 0.000000 0.250000
vt 0.000000 0.687500
vt 0.000000 0.187500
vt 0.000000 0.625000
vt 0.000000 0.125000
vt 0.000000 0.562500
vt 0.000000 0.062500
vt 0.000000 0.500000
vt 0.015625 1.000000
vt 0.000000 0.937500
vt 0.015625 0.000000
vt 1.000000 0.125000
vt 1.000000 0.187500
vt 0.968750 0.187500
vt 0.968750 0.125000
vt 1.000000 0.562500
vt 1.000000 0.625000
vt 0.968750 0.625000
vt 0.968750 0.562500
vt 1.000000 0.062500
vt 0.968750 0.062500
vt 1.000000 0.500000
vt 0.968750 0.500000
vt 1.000000 0.937500
vt 0.984375 1.000000
vt 0.968750 0.937500
vt 0.984375 0.000000
vt 1.000000 0.437500
vt 0.968750 0.437500
vt 1.000000 0.875000
vt 0.968750 0.875000
vt 1.000000 0.375000
vt 0.968750 0.375000
vt 1.000000 0.812500
vt 0.968750 0.812500
vt 1.000000 0.312500
vt 0.968750 0.312500
vt 1.000000 0.750000
vt 0.968750 0.750000
vt 1.000000 0.250000
vt 0.968750 0.250000
vt 1.000000 0.687500
vt 0.968750 0.687500
vt 0.937500 0.875000
vt 0.937500 0.812500
vt 0.937500 0.375000
vt 0.937500 0.312500
vt 0.937500 0.750000
vt 0.937500 0.250000
vt 0.937500 0.687500
vt 0.937500 0.187500
vt 0.937500 0.625000
vt 0.937500 0.125000
vt 0.937500 0.562500
vt 0.937500 0.062500
vt 0.937500 0.500000
vt 0.953125 1.000000
vt 0.937500 0.937500
vt 0.953125 0.000000
vt 0.937500 0.437500
vt 0.906250 0.625000
vt 0.906250 0.562500
vt 0.906250 0.125000
vt 0.906250 0.062500
vt 0.906250 0.500000
vt 0.921875 1.000000
vt 0.906250 0.937500
vt 0.921875 0.000000
vt 0.906250 0.437500
vt 0.906250 0.875000
vt 0.906250 0.375000
vt 0.906250 0.812500
vt 0.906250 0.312500
vt 0.906250 0.750000
vt 0.906250 0.250000
vt 0.906250 0.687500
vt 0.906250 0.187500
vt 0.875000 0.375000
vt 0.875000 0.312500
vt 0.875000 0.812500
vt 0.875000 0.750000
vt 0.875000 0.250000
vt 0.875000 0.687500
vt 0.875000 0.187500
vt 0.875000 0.625000
vt 0.875000 0.125000
vt 0.875000 0.562500
vt 0.875000 0.062500
vt 0.875000 0.500000
vt 0.890625 1.000000
vt 0.875000 0.937500
vt 0.890625 0.000000
vt 0.875000 0.437500
vt 0.875000 0.875000
vt 0.843750 0.125000
vt 0.843750 0.062500
vt 0.843750 0.562500
vt 0.843750 0.500000
vt 0.859375 1.000000
vt 0.843750 0.937500
vt 0.859375 0.000000
vt 0.843750 0.437500
vt 0.843750 0.875000
vt 0.843750 0.375000
vt 0.843750 0.812500
vt 0.843750 0.312500
vt 0.843750 0.750000
vt 0.843750 0.250000
vt 0.843750 0.687500
vt 0.843750 0.187500
vt 0.843750 0.625000
vt 0.812500 0.312500
vt 0.812500 0.250000
vt 0.812500 0.750000
vt 0.812500 0.687500
vt 0.812500 0.187500
vt 0.812500 0.625000
vt 0.812500 0.125000
vt 0.812500 0.562500
vt 0.812500 0.062500
vt 0.812500 0.500000
vt 0.828125 1.000000
vt 0.812500 0.937500
vt 0.828125 0.000000
vt 0.812500 0.437500
vt 0.812500 0.875000
vt 0.812500 0.375000
vt 0.812500 0.812500
vt 0.796875 1.000000
vt 0.781250 0.937500
vt 0.796875 0.000000
vt 0.781250 0.062500
vt 0.781250 0.500000
vt 0.781250 0.437500
vt 0.781250 0.875000
vt 0.781250 0.375000
vt 0.781250 0.812500
vt 0.781250 0.312500
vt 0.781250 0.750000
vt 0.781250 0.250000
vt 0.781250 0.687500
vt 0.781250 0.187500
vt 0.781250 0.625000
vt 0.781250 0.125000
vt 0.781250 0.562500
vt 0.765625 1.000000
vt 0.765625 0.000000
s 1
usemtl Moon
f 9/1/1 8/2/2 21/3/3 22/4/4
f 5/5/5 4/6/6 14/7/7 15/8/8
f 10/9/9 9/1/1 22/4/4 23/10/10
f 6/11/11 5/5/5 15/8/8 16/12/12
f 480/13/13 10/9/9 23/10/10 24/14/14
f 7/15/15 6/11/11 16/12/12 17/16/16
f 481/17/17 480/13/13 24/14/14 25/18/18
f 477/19/19 7/15/15 17/16/16 18/20/20
f 1/21/21 326/22/22 11/23/23
f 482/24/24 481/17/17 25/18/18
f 478/25/25 477/19/19 18/20/20 19/26/26
f 2/27/27 1/21/21 11/23/23 12/28/28
f 479/29/29 478/25/25 19/26/26 20/30/30
f 3/31/31 2/27/27 12/28/28 13/32/32
f 8/2/2 479/29/29 20/30/30 21/3/3
f 4/6/6 3/31/31 13/32/32 14/7/7
f 21/3/3 20/30/30 35/33/33 36/34/34
f 14/7/7 13/32/32 28/35/35 29/36/36
f 22/4/4 21/3/3 36/34/34 37/37/37
f 15/8/8 14/7/7 29/36/36 30/38/38
f 23/10/10 22/4/4 37/37/37 38/39/39
f 16/12/12 15/8/8 30/38/38 31/40/40
f 24/14/14 23/10/10 38/39/39 39/41/41
f 17/16/16 16/12/12 31/40/40 32/42/42
f 25/18/18 24/14/14 39/41/41 40/43/43
f 18/20/20 17/16/16 32/42/42 33/44/44
f 11/23/23 326/45/22 26/46/45
f 482/47/24 25/18/18 40/43/43
f 19/26/26 18/20/20 33/44/44 34/48/46
f 12/28/28 11/23/23 26/46/45 27/49/47
f 20/30/30 19/26/26 34/48/46 35/33/33
f 13/32/32 12/28/28 27/49/47 28/35/35
f 40/43/43 39/41/41 54/50/48 55/51/49
f 33/44/44 32/42/42 47/52/50 48/53/51
f 26/46/45 326/54/22 41/55/52
f 482/56/24 40/43/43 55/51/49
f 34/48/46 33/44/44 48/53/51 49/57/53
f 27/49/47 26/46/45 41/55/52 42/58/54
f 35/33/33 34/48/46 49/57/53 50/59/55
f 28/35/35 27/49/47 42/58/54 43/60/56
f 36/34/34 35/33/33 50/59/55 51/61/57
f 29/36/36 28/35/35 43/60/56 44/62/58
f 37/37/37 36/34/34 51/61/57 52/63/59
f 30/38/38 29/36/36 44/62/58 45/64/60
f 38/39/39 37/37/37 52/63/59 53/65/61
f 31/40/40 30/38/38 45/64/60 46/66/62
f 39/41/41 38/39/39 53/65/61 54/50/48
f 32/42/42 31/40/40 46/66/62 47/52/50
f 44/62/58 43/60/56 58/67/63 59/68/64
f 52/63/59 51/61/57 66/69/65 67/70/66
f 45/64/60 44/62/58 59/68/64 60/71/67
f 53/65/61 52/63/59 67/70/66 68/72/68
f 46/66/62 45/64/60 60/71/67 61/73/69
f 54/50/48 53/65/61 68/72/68 69/74/70
f 47/52/50 46/66/62 61/73/69 62/75/71
f 55/51/49 54/50/48 69/74/70 70/76/72
f 48/53/51 47/52/50 62/75/71 63/77/73
f 41/55/52 326/78/22 56/79/74
f 482/80/24 55/51/49 70/76/72
f 49/57/53 48/53/51 63/77/73 64/81/75
f 42/58/54 41/55/52 56/79/74 57/82/76
f 50/59/55 49/57/53 64/81/75 65/83/77
f 43/60/56 42/58/54 57/82/76 58/67/63
f 51/61/57 50/59/55 65/83/77 66/69/65
f 63/77/73 62/75/71 77/84/78 78/85/79
f 56/79/74 326/86/22 71/87/80
f 482/88/24 70/76/72 85/89/81
f 64/81/75 63/77/73 78/85/79 79/90/82
f 57/82/76 56/79/74 71/87/80 72/91/83
f 65/83/77 64/81/75 79/90/82 80/92/84
f 58/67/63 57/82/76 72/91/83 73/93/85
f 66/69/65 65/83/77 80/92/84 81/94/86
f 59/68/64 58/67/63 73/93/85 74/95/87
f 67/70/66 66/69/65 81/94/86 82/96/88
f 60/71/67 59/68/64 74/95/87 75/97/89
f 68/72/68 67/70/66 82/96/88 83/98/90
f 61/73/69 60/71/67 75/97/89 76/99/91
f 69/74/70 68/72/68 83/98/90 84/100/92
f 62/75/71 61/73/69 76/99/91 77/84/78
f 70/76/72 69/74/70 84/100/92 85/89/81
f 82/96/88 81/94/86 96/101/93 97/102/94
f 75/97/89 74/95/87 89/103/95 90/104/96
f 83/98/90 82/96/88 97/102/94 98/105/97
f 76/99/91 75/97/89 90/104/96 91/106/98
f 84/100/92 83/98/90 98/105/97 99/107/99
f 77/84/78 76/99/91 91/106/98 92/108/100
f 85/89/81 84/100/92 99/107/99 100/109/101
f 78/85/79 77/84/78 92/108/100 93/110/102
f 71/87/80 326/111/22 86/112/103
f 482/113/24 85/89/81 100/109/101
f 79/90/82 78/85/79 93/110/102 94/114/104
f 72/91/83 71/87/80 86/112/103 87/115/105
f 80/92/84 79/90/82 94/114/104 95/116/106
f 73/93/85 72/91/83 87/115/105 88/117/107
f 81/94/86 80/92/84 95/116/106 96/101/93
f 74/95/87 73/93/85 88/117/107 89/103/95
f 86/112/103 326/118/22 101/119/108
f 482/120/24 100/109/101 115/121/109
f 94/114/104 93/110/102 108/122/110 109/123/111
f 87/115/105 86/112/103 101/119/108 102/124/112
f 95/116/106 94/114/104 109/123/111 110/125/113
f 88/117/107 87/115/105 102/124/112 103/126/114
f 96/101/93 95/116/106 110/125/113 111/127/115
f 89/103/95 88/117/107 103/126/114 104/128/116
f 97/102/94 96/101/93 111/127/115 112/129/117
f 90/104/96 89/103/95 104/128/116 105/130/118
f 98/105/97 97/102/94 112/129/117 113/131/119
f 91/106/98 90/104/96 105/130/118 106/132/120
f 99/107/99 98/105/97 113/131/119 114/133/121
f 92/108/100 91/106/98 106/132/120 107/134/122
f 100/109/101 99/107/99 114/133/121 115/121/109
f 93/110/102 92/108/100 107/134/122 108/122/110
f 105/130/118 104/128/116 119/135/123 120/136/124
f 113/131/119 112/129/117 127/137/125 128/138/126
f 106/132/120 105/130/118 120/136/124 121/139/127
f 114/133/121 113/131/119 128/138/126 129/140/128
f 107/134/122 106/132/120 121/139/127 122/141/129
f 115/121/109 114/133/121 129/140/128 130/142/130
f 108/122/110 107/134/122 122/141/129 123/143/131
f 101/119/108 326/144/22 116/145/132
f 482/146/24 115/121/109 130/142/130
f 109/123/111 108/122/110 123/143/131 124/147/133
f 102/124/112 101/119/108 116/145/132 117/148/134
f 110/125/113 109/123/111 124/147/133 125/149/135
f 103/126/114 102/124/112 117/148/134 118/150/136
f 111/127/115 110/125/113 125/149/135 126/151/137
f 104/128/116 103/126/114 118/150/136 119/135/123
f 112/129/117 111/127/115 126/151/137 127/137/125
f 124/147/133 123/143/131 138/152/138 139/153/139
f 117/148/134 116/145/132 131/154/140 132/155/141
f 125/149/135 124/147/133 139/153/139 140/156/142
f 118/150/136 117/148/134 132/155/141 133/157/143
f 126/151/137 125/149/135 140/156/142 141/158/144
f 119/135/123 118/150/136 133/157/143 134/159/145
f 127/137/125 126/151/137 141/158/144 142/160/146
f 120/136/124 119/135/123 134/159/145 135/161/147
f 128/138/126 127/137/125 142/160/146 143/162/148
f 121/139/127 120/136/124 135/161/147 136/163/149
f 129/140/128 128/138/126 143/162/148 144/164/150
f 122/141/129 121/139/127 136/163/149 137/165/151
f 130/142/130 129/140/128 144/164/150 145/166/152
f 123/143/131 122/141/129 137/165/151 138/152/138
f 116/145/132 326/167/22 131/154/140
f 482/168/24 130/142/130 145/166/152
f 143/162/148 142/160/146 157/169/153 158/170/154
f 136/163/149 135/161/147 150/171/155 151/172/156
f 144/164/150 143/162/148 158/170/154 159/173/157
f 137/165/151 136/163/149 151/172/156 152/174/158
f 145/166/152 144/164/150 159/173/157 160/175/159
f 138/152/138 137/165/151 152/174/158 153/176/160
f 131/154/140 326/177/22 146/178/161
f 482/179/24 145/166/152 160/175/159
f 139/153/139 138/152/138 153/176/160 154/180/162
f 132/155/141 131/154/140 146/178/161 147/181/163
f 140/156/142 139/153/139 154/180/162 155/182/164
f 133/157/143 132/155/141 147/181/163 148/183/165
f 141/158/144 140/156/142 155/182/164 156/184/166
f 134/159/145 133/157/143 148/183/165 149/185/167
f 142/160/146 141/158/144 156/184/166 157/169/153
f 135/161/147 134/159/145 149/185/167 150/171/155
f 155/182/164 154/180/162 169/186/168 170/187/169
f 148/183/165 147/181/163 162/188/170 163/189/171
f 156/184/166 155/182/164 170/187/169 171/190/172
f 149/185/167 148/183/165 163/189/171 164/191/173
f 157/169/153 156/184/166 171/190/172 172/192/174
f 150/171/155 149/185/167 164/191/173 165/193/175
f 158/170/154 157/169/153 172/192/174 173/194/176
f 151/172/156 150/171/155 165/193/175 166/195/177
f 159/173/157 158/170/154 173/194/176 174/196/178
f 152/174/158 151/172/156 166/195/177 167/197/179
f 160/175/159 159/173/157 174/196/178 175/198/180
f 153/176/160 152/174/158 167/197/179 168/199/181
f 146/178/161 326/200/22 161/201/182
f 482/202/24 160/175/159 175/198/180
f 154/180/162 153/176/160 168/199/181 169/186/168
f 147/181/163 146/178/161 161/201/182 162/188/170
f 174/196/178 173/194/176 188/203/183 189/204/184
f 167/197/179 166/195/177 181/205/185 182/206/186
f 175/198/180 174/196/178 189/204/184 190/207/187
f 168/199/181 167/197/179 182/206/186 183/208/188
f 161/201/182 326/209/22 176/210/189
f 482/211/24 175/198/180 190/207/187
f 169/186/168 168/199/181 183/208/188 184/212/190
f 162/188/170 161/201/182 176/210/189 177/213/191
f 170/187/169 169/186/168 184/212/190 185/214/192
f 163/189/171 162/188/170 177/213/191 178/215/193
f 171/190/172 170/187/169 185/214/192 186/216/194
f 164/191/173 163/189/171 178/215/193 179/217/195
f 172/192/174 171/190/172 186/216/194 187/218/196
f 165/193/175 164/191/173 179/217/195 180/219/197
f 173/194/176 172/192/174 187/218/196 188/203/183
f 166/195/177 165/193/175 180/219/197 181/205/185
f 178/215/193 177/213/191 192/220/198 193/221/199
f 186/216/194 185/214/192 200/222/200 201/223/201
f 179/217/195 178/215/193 193/221/199 194/224/202
f 187/218/196 186/216/194 201/223/201 202/225/203
f 180/219/197 179/217/195 194/224/202 195/226/204
f 188/203/183 187/218/196 202/225/203 203/227/205
f 181/205/185 180/219/197 195/226/204 196/228/206
f 189/204/184 188/203/183 203/227/205 204/229/207
f 182/206/186 181/205/185 196/228/206 197/230/208
f 190/207/187 189/204/184 204/229/207 205/231/209
f 183/208/188 182/206/186 197/230/208 198/232/210
f 176/210/189 326/233/22 191/234/211
f 482/235/24 190/207/187 205/231/209
f 184/212/190 183/208/188 198/232/210 199/236/212
f 177/213/191 176/210/189 191/234/211 192/220/198
f 185/214/192 184/212/190 199/236/212 200/222/200
f 197/230/208 196/228/206 211/237/213 212/238/214
f 205/231/209 204/229/207 219/239/215 220/240/216
f 198/232/210 197/230/208 212/238/214 213/241/217
f 191/234/211 326/242/22 206/243/218
f 482/244/24 205/231/209 220/240/216
f 199/236/212 198/232/210 213/241/217 214/245/219
f 192/220/198 191/234/211 206/243/218 207/246/220
f 200/222/200 199/236/212 214/245/219 215/247/221
f 193/221/199 192/220/198 207/246/220 208/248/222
f 201/223/201 200/222/200 215/247/221 216/249/223
f 194/224/202 193/221/199 208/248/222 209/250/224
f 202/225/203 201/223/201 216/249/223 217/251/225
f 195/226/204 194/224/202 209/250/224 210/252/226
f 203/227/205 202/225/203 217/251/225 218/253/227
f 196/228/206 195/226/204 210/252/226 211/237/213
f 204/229/207 203/227/205 218/253/227 219/239/215
f 216/249/223 215/247/221 230/254/228 231/255/229
f 209/250/224 208/248/222 223/256/230 224/257/231
f 217/251/225 216/249/223 231/255/229 232/258/232
f 210/252/226 209/250/224 224/257/231 225/259/233
f 218/253/227 217/251/225 232/258/232 233/260/234
f 211/237/213 210/252/226 225/259/233 226/261/235
f 219/239/215 218/253/227 233/260/234 234/262/236
f 212/238/214 211/237/213 226/261/235 227/263/237
f 220/240/216 219/239/215 234/262/236 235/264/238
f 213/241/217 212/238/214 227/263/237 228/265/239
f 206/243/218 326/266/22 221/267/240
f 482/268/24 220/240/216 235/264/238
f 214/245/219 213/241/217 228/265/239 229/269/241
f 207/246/220 206/243/218 221/267/240 222/270/242
f 215/247/221 214/245/219 229/269/241 230/254/228
f 208/248/222 207/246/220 222/270/242 223/256/230
f 235/264/238 234/262/236 249/271/243 250/272/244
f 228/265/239 227/263/237 242/273/245 243/274/246
f 221/267/240 326/275/22 236/276/247
f 482/277/24 235/264/238 250/272/244
f 229/269/241 228/265/239 243/274/246 244/278/248
f 222/270/242 221/267/240 236/276/247 237/279/249
f 230/254/228 229/269/241 244/278/248 245/280/250
f 223/256/230 222/270/242 237/279/249 238/281/251
f 231/255/229 230/254/228 245/280/250 246/282/252
f 224/257/231 223/256/230 238/281/251 239/283/253
f 232/258/232 231/255/229 246/282/252 247/284/254
f 225/259/233 224/257/231 239/283/253 240/285/255
f 233/260/234 232/258/232 247/284/254 248/286/256
f 226/261/235 225/259/233 240/285/255 241/287/257
f 234/262/236 233/260/234 248/286/256 249/271/243
f 227/263/237 226/261/235 241/287/257 242/273/245
f 239/283/253 238/281/251 253/288/258 254/289/259
f 247/284/254 246/282/252 261/290/260 262/291/261
f 240/285/255 239/283/253 254/289/259 255/292/262
f 248/286/256 247/284/254 262/291/261 263/293/263
f 241/287/257 240/285/255 255/292/262 256/294/264
f 249/271/243 248/286/256 263/293/263 264/295/265
f 242/273/245 241/287/257 256/294/264 257/296/266
f 250/272/244 249/271/243 264/295/265 265/297/267
f 243/274/246 242/273/245 257/296/266 258/298/268
f 236/276/247 326/299/22 251/300/269
f 482/301/24 250/272/244 265/297/267
f 244/278/248 243/274/246 258/298/268 259/302/270
f 237/279/249 236/276/247 251/300/269 252/303/271
f 245/280/250 244/278/248 259/302/270 260/304/272
f 238/281/251 237/279/249 252/303/271 253/288/258
f 246/282/252 245/280/250 260/304/272 261/290/260
f 258/298/268 257/296/266 272/305/273 273/306/274
f 251/300/269 326/307/22 266/308/275
f 482/309/24 265/297/267 280/310/276
f 259/302/270 258/298/268 273/306/274 274/311/277
f 252/303/271 251/300/269 266/308/275 267/312/278
f 260/304/272 259/302/270 274/311/277 275/313/279
f 253/288/258 252/303/271 267/312/278 268/314/280
f 261/290/260 260/304/272 275/313/279 276/315/281
f 254/289/259 253/288/258 268/314/280 269/316/282
f 262/291/261 261/290/260 276/315/281 277/317/283
f 255/292/262 254/289/259 269/316/282 270/318/284
f 263/293/263 262/291/261 277/317/283 278/319/285
f 256/294/264 255/292/262 270/318/284 271/320/286
f 264/295/265 263/293/263 278/319/285 279/321/287
f 257/296/266 256/294/264 271/320/286 272/305/273
f 265/297/267 264/295/265 279/321/287 280/310/276
f 277/317/283 276/315/281 291/322/288 292/323/289
f 270/318/284 269/316/282 284/324/290 285/325/291
f 278/319/285 277/317/283 292/323/289 293/326/292
f 271/320/286 270/318/284 285/325/291 286/327/293
f 279/321/287 278/319/285 293/326/292 294/328/294
f 272/305/273 271/320/286 286/327/293 287/329/295
f 280/310/276 279/321/287 294/328/294 295/330/296
f 273/306/274 272/305/273 287/329/295 288/331/297
f 266/308/275 326/332/22 281/333/298
f 482/334/24 280/310/276 295/330/296
f 274/311/277 273/306/274 288/331/297 289/335/299
f 267/312/278 266/308/275 281/333/298 282/336/300
f 275/313/279 274/311/277 289/335/299 290/337/301
f 268/314/280 267/312/278 282/336/300 283/338/302
f 276/315/281 275/313/279 290/337/301 291/322/288
f 269/316/282 268/314/280 283/338/302 284/324/290
f 482/339/24 295/330/296 310/340/303
f 289/335/299 288/331/297 303/341/304 304/342/305
f 282/336/300 281/333/298 296/343/306 297/344/307
f 290/337/301 289/335/299 304/342/305 305/345/308
f 283/338/302 282/336/300 297/344/307 298/346/309
f 291/322/288 290/337/301 305/345/308 306/347/310
f 284/324/290 283/338/302 298/346/309 299/348/311
f 292/323/289 291/322/288 306/347/310 307/349/312
f 285/325/291 284/324/290 299/348/311 300/350/313
f 293/326/292 292/323/289 307/349/312 308/351/314
f 286/327/293 285/325/291 300/350/313 301/352/315
f 294/328/294 293/326/292 308/351/314 309/353/316
f 287/329/295 286/327/293 301/352/315 302/354/317
f 295/330/296 294/328/294 309/353/316 310/340/303
f 288/331/297 287/329/295 302/354/317 303/341/304
f 281/333/298 326/355/22 296/343/306
f 308/351/314 307/349/312 322/356/318 323/357/319
f 301/352/315 300/350/313 315/358/320 316/359/321
f 309/353/316 308/351/314 323/357/319 324/360/322
f 302/354/317 301/352/315 316/359/321 317/361/323
f 310/340/303 309/353/316 324/360/322 325/362/324
f 303/341/304 302/354/317 317/361/323 318/363/325
f 296/343/306 326/364/22 311/365/326
f 482/366/24 310/340/303 325/362/324
f 304/342/305 303/341/304 318/363/325 319/367/327
f 297/344/307 296/343/306 311/365/326 312/368/328
f 305/345/308 304/342/305 319/367/327 320/369/329
f 298/346/309 297/344/307 312/368/328 313/370/330
f 306/347/310 305/345/308 320/369/329 321/371/331
f 299/348/311 298/346/309 313/370/330 314/372/332
f 307/349/312 306/347/310 321/371/331 322/356/318
f 300/350/313 299/348/311 314/372/332 315/358/320
f 312/368/328 311/365/326 327/373/333 328/374/334
f 320/369/329 319/367/327 335/375/335 336/376/336
f 313/370/330 312/368/328 328/374/334 329/377/337
f 321/371/331 320/369/329 336/376/336 337/378/338
f 314/372/332 313/370/330 329/377/337 330/379/339
f 322/356/318 321/371/331 337/378/338 338/380/340
f 315/358/320 314/372/332 330/379/339 331/381/341
f 323/357/319 322/356/318 338/380/340 339/382/342
f 316/359/321 315/358/320 331/381/341 332/383/343
f 324/360/322 323/357/319 339/382/342 340/384/344
f 317/361/323 316/359/321 332/383/343 333/385/345
f 325/362/324 324/360/322 340/384/344 341/386/346
f 318/363/325 317/361/323 333/385/345 334/387/347
f 311/365/326 326/388/22 327/373/333
f 482/389/24 325/362/324 341/386/346
f 319/367/327 318/363/325 334/387/347 335/375/335
f 332/383/343 331/381/341 346/390/348 347/391/349
f 340/384/344 339/382/342 354/392/350 355/393/351
f 333/385/345 332/383/343 347/391/349 348/394/352
f 341/386/346 340/384/344 355/393/351 356/395/353
f 334/387/347 333/385/345 348/394/352 349/396/354
f 327/373/333 326/397/22 342/398/355
f 482/399/24 341/386/346 356/395/353
f 335/375/335 334/387/347 349/396/354 350/400/356
f 328/374/334 327/373/333 342/398/355 343/401/357
f 336/376/336 335/375/335 350/400/356 351/402/358
f 329/377/337 328/374/334 343/401/357 344/403/359
f 337/378/338 336/376/336 351/402/358 352/404/360
f 330/379/339 329/377/337 344/403/359 345/405/361
f 338/380/340 337/378/338 352/404/360 353/406/362
f 331/381/341 330/379/339 345/405/361 346/390/348
f 339/382/342 338/380/340 353/406/362 354/392/350
f 351/402/358 350/400/356 365/407/363 366/408/364
f 344/403/359 343/401/357 358/409/365 359/410/366
f 352/404/360 351/402/358 366/408/364 367/411/367
f 345/405/361 344/403/359 359/410/366 360/412/368
f 353/406/362 352/404/360 367/411/367 368/413/369
f 346/390/348 345/405/361 360/412/368 361/414/370
f 354/392/350 353/406/362 368/413/369 369/415/371
f 347/391/349 346/390/348 361/414/370 362/416/372
f 355/393/351 354/392/350 369/415/371 370/417/373
f 348/394/352 347/391/349 362/416/372 363/418/374
f 356/395/353 355/393/351 370/417/373 371/419/375
f 349/396/354 348/394/352 363/418/374 364/420/376
f 342/398/355 326/421/22 357/422/377
f 482/423/24 356/395/353 371/419/375
f 350/400/356 349/396/354 364/420/376 365/407/363
f 343/401/357 342/398/355 357/422/377 358/409/365
f 370/424/373 369/425/371 384/426/378 385/427/379
f 363/428/374 362/429/372 377/430/380 378/431/381
f 371/432/375 370/424/373 385/427/379 386/433/382
f 364/434/376 363/428/374 378/431/381 379/435/383
f 357/436/377 326/437/22 372/438/384
f 482/439/24 371/432/375 386/433/382
f 365/440/363 364/434/376 379/435/383 380/441/385
f 358/442/365 357/436/377 372/438/384 373/443/386
f 366/444/364 365/440/363 380/441/385 381/445/387
f 359/446/366 358/442/365 373/443/386 374/447/388
f 367/448/367 366/444/364 381/445/387 382/449/389
f 360/450/368 359/446/366 374/447/388 375/451/390
f 368/452/369 367/448/367 382/449/389 383/453/391
f 361/454/370 360/450/368 375/451/390 376/455/392
f 369/425/371 368/452/369 383/453/391 384/426/378
f 362/429/372 361/454/370 376/455/392 377/430/380
f 374/447/388 373/443/386 388/456/393 389/457/394
f 382/449/389 381/445/387 396/458/395 397/459/396
f 375/451/390 374/447/388 389/457/394 390/460/397
f 383/453/391 382/449/389 397/459/396 398/461/398
f 376/455/392 375/451/390 390/460/397 391/462/399
f 384/426/378 383/453/391 398/461/398 399/463/400
f 377/430/380 376/455/392 391/462/399 392/464/401
f 385/427/379 384/426/378 399/463/400 400/465/402
f 378/431/381 377/430/380 392/464/401 393/466/403
f 386/433/382 385/427/379 400/465/402 401/467/404
f 379/435/383 378/431/381 393/466/403 394/468/405
f 372/438/384 326/469/22 387/470/406
f 482/471/24 386/433/382 401/467/404
f 380/441/385 379/435/383 394/468/405 395/472/407
f 373/443/386 372/438/384 387/470/406 388/456/393
f 381/445/387 380/441/385 395/472/407 396/458/395
f 393/466/403 392/464/401 407/473/408 408/474/409
f 401/467/404 400/465/402 415/475/410 416/476/411
f 394/468/405 393/466/403 408/474/409 409/477/412
f 387/470/406 326/478/22 402/479/413
f 482/480/24 401/467/404 416/476/411
f 395/472/407 394/468/405 409/477/412 410/481/414
f 388/456/393 387/470/406 402/479/413 403/482/415
f 396/458/395 395/472/407 410/481/414 411/483/416
f 389/457/394 388/456/393 403/482/415 404/484/417
f 397/459/396 396/458/395 411/483/416 412/485/418
f 390/460/397 389/457/394 404/484/417 405/486/419
f 398/461/398 397/459/396 412/485/418 413/487/420
f 391/462/399 390/460/397 405/486/419 406/488/421
f 399/463/400 398/461/398 413/487/420 414/489/422
f 392/464/401 391/462/399 406/488/421 407/473/408
f 400/465/402 399/463/400 414/489/422 415/475/410
f 412/485/418 411/483/416 426/490/423 427/491/424
f 405/486/419 404/484/417 419/492/425 420/493/426
f 413/487/420 412/485/418 427/491/424 428/494/427
f 406/488/421 405/486/419 420/493/426 421/495/428
f 414/489/422 413/487/420 428/494/427 429/496/429
f 407/473/408 406/488/421 421/495/428 422/497/430
f 415/475/410 414/489/422 429/496/429 430/498/431
f 408/474/409 407/473/408 422/497/430 423/499/432
f 416/476/411 415/475/410 430/498/431 431/500/433
f 409/477/412 408/474/409 423/499/432 424/501/434
f 402/479/413 326/502/22 417/503/435
f 482/504/24 416/476/411 431/500/433
f 410/481/414 409/477/412 424/501/434 425/505/436
f 403/482/415 402/479/413 417/503/435 418/506/437
f 411/483/416 410/481/414 425/505/436 426/490/423
f 404/484/417 403/482/415 418/506/437 419/492/425
f 431/500/433 430/498/431 445/507/438 446/508/439
f 424/501/434 423/499/432 438/509/440 439/510/441
f 417/503/435 326/511/22 432/512/442
f 482/513/24 431/500/433 446/508/439
f 425/505/436 424/501/434 439/510/441 440/514/443
f 418/506/437 417/503/435 432/512/442 433/515/444
f 426/490/423 425/505/436 440/514/443 441/516/445
f 419/492/425 418/506/437 433/515/444 434/517/446
f 427/491/424 426/490/423 441/516/445 442/518/447
f 420/493/426 419/492/425 434/517/446 435/519/448
f 428/494/427 427/491/424 442/518/447 443/520/449
f 421/495/428 420/493/426 435/519/448 436/521/450
f 429/496/429 428/494/427 443/520/449 444/522/451
f 422/497/430 421/495/428 436/521/450 437/523/452
f 430/498/431 429/496/429 444/522/451 445/507/438
f 423/499/432 422/497/430 437/523/452 438/509/440
f 443/520/449 442/518/447 457/524/453 458/525/454
f 436/521/450 435/519/448 450/526/455 451/527/456
f 444/522/451 443/520/449 458/525/454 459/528/457
f 437/523/452 436/521/450 451/527/456 452/529/458
f 445/507/438 444/522/451 459/528/457 460/530/459
f 438/509/440 437/523/452 452/529/458 453/531/460
f 446/508/439 445/507/438 460/530/459 461/532/461
f 439/510/441 438/509/440 453/531/460 454/533/462
f 432/512/442 326/534/22 447/535/463
f 482/536/24 446/508/439 461/532/461
f 440/514/443 439/510/441 454/533/462 455/537/464
f 433/515/444 432/512/442 447/535/463 448/538/465
f 441/516/445 440/514/443 455/537/464 456/539/466
f 434/517/446 433/515/444 448/538/465 449/540/467
f 442/518/447 441/516/445 456/539/466 457/524/453
f 435/519/448 434/517/446 449/540/467 450/526/455
f 447/535/463 326/541/22 462/542/468
f 482/543/24 461/532/461 476/544/469
f 455/537/464 454/533/462 469/545/470 470/546/471
f 448/538/465 447/535/463 462/542/468 463/547/472
f 456/539/466 455/537/464 470/546/471 471/548/473
f 449/540/467 448/538/465 463/547/472 464/549/474
f 457/524/453 456/539/466 471/548/473 472/550/475
f 450/526/455 449/540/467 464/549/474 465/551/476
f 458/525/454 457/524/453 472/550/475 473/552/477
f 451/527/456 450/526/455 465/551/476 466/553/478
f 459/528/457 458/525/454 473/552/477 474/554/479
f 452/529/458 451/527/456 466/553/478 467/555/480
f 460/530/459 459/528/457 474/554/479 475/556/481
f 453/531/460 452/529/458 467/555/480 468/557/482
f 461/532/461 460/530/459 475/556/481 476/544/469
f 454/533/462 453/531/460 468/557/482 469/545/470
f 466/553/478 465/551/476 4/6/6 5/5/5
f 474/554/479 473/552/477 9/1/1 10/9/9
f 467/555/480 466/553/478 5/5/5 6/11/11
f 475/556/481 474/554/479 10/9/9 480/13/13
f 468/557/482 467/555/480 6/11/11 7/15/15
f 476/544/469 475/556/481 480/13/13 481/17/17
f 469/545/470 468/557/482 7/15/15 477/19/19
f 462/542/468 326/558/22 1/21/21
f 482/559/24 476/544/469 481/17/17
f 470/546/471 469/545/470 477/19/19 478/25/25
f 463/547/472 462/542/468 1/21/21 2/27/27
f 471/548/473 470/546/471 478/25/25 479/29/29
f 464/549/474 463/547/472 2/27/27 3/31/31
f 472/550/475 471/548/473 479/29/29 8/2/2
f 465/551/476 464/549/474 3/31/31 4/6/6
f 473/552/477 472/550/475 8/2/2 9/1/1
